<?xml version="1.0" encoding="utf-8"?>
<svg version="1.1" id="Layer_1" x="0px" y="0px" viewBox="0 0 299 300" style="enable-background:new 0 0 500 500;" xmlns="http://www.w3.org/2000/svg">
  <style type="text/css">
	.st0{display:none;}
	.st1{display:inline;fill:#EEF4D6;}
	.st2{display:none;fill:#4B4A4C;}
	.st3{fill:#76C9B8;}
</style>
  <rect width="300" height="300" style="fill: rgb(26, 32, 84);"/>
  <g class="st0">
    <path class="st1" d="M497.5,250c0,136.7-110.8,247.5-247.5,247.5C113.3,497.5,2.5,386.7,2.5,250C2.5,113.3,113.3,2.5,250,2.5 C386.7,2.5,497.5,113.3,497.5,250z"/>
  </g>
  <path class="st2" d="M379.5,359.7L275.6,101.9l-71.9,0.8l11.9,30.2c0,0-79.5,209.9-85.5,224.8c-6,14.9-24,14-24,14v13.8h83.3v-15.5 c-32.1,0-29.4-17.6-29.4-17.6l20.2-52.7h103.8c7.7,19,14.1,34.9,17.2,42.9c12.1,30.6-31.9,28.1-31.9,28.1v14.7h131v-15.5 C382.1,369.9,379.5,359.7,379.5,359.7z M190.7,272.1l39.9-104.1c0,0,22.3,54.9,42.2,104.1H190.7z"/>
  <g class="st0" transform="matrix(1, 0, 0, 1, 75.605583, -91.374258)">
    <path class="st1" d="M497.5,250c0,136.7-110.8,247.5-247.5,247.5C113.3,497.5,2.5,386.7,2.5,250C2.5,113.3,113.3,2.5,250,2.5 C386.7,2.5,497.5,113.3,497.5,250z"/>
  </g>
  <path class="st2" d="M379.5,359.7L275.6,101.9l-71.9,0.8l11.9,30.2c0,0-79.5,209.9-85.5,224.8c-6,14.9-24,14-24,14v13.8h83.3v-15.5 c-32.1,0-29.4-17.6-29.4-17.6l20.2-52.7h103.8c7.7,19,14.1,34.9,17.2,42.9c12.1,30.6-31.9,28.1-31.9,28.1v14.7h131v-15.5 C382.1,369.9,379.5,359.7,379.5,359.7z M190.7,272.1l39.9-104.1c0,0,22.3,54.9,42.2,104.1H190.7z" transform="matrix(1, 0, 0, 1, 75.605583, -91.374258)"/>
  <g class="st0" transform="matrix(1, 0, 0, 1, 75.605583, -91.374258)">
    <path class="st3" d="M497.5,250c0,136.7-110.8,247.5-247.5,247.5C113.3,497.5,2.5,386.7,2.5,250C2.5,113.3,113.3,2.5,250,2.5 C386.7,2.5,497.5,113.3,497.5,250z"/>
  </g>
  <g class="st0" transform="matrix(1, 0, 0, 1, 75.605583, -91.374258)">
    <path class="st4" d="M271.3,360.7c-14.4-18.3-24-35.5-31.2-45.2l0,0l-17.4-25.8c5.6-1.6,47.8-15.4,49.6-60.6 c2-50.5-45.8-64.8-107-58.2h-13.5h-6.4h-7h-29.2v10.5c0,0,29.2-0.1,29.2,23.2v157.9c0,0-1.9,20.5-22.2,20.5h-6.9v11.2h89.3v-11.2 h-11.1c-20.3,0-22.2-20.5-22.2-20.5v-69.2h25.9c7.2,11.7,48.1,78.2,58.7,86.6c12.2,9.8,18,11.2,18,11.2l0,0c6.6,3.3,22.2,9,42.7,3 v-9.9C310.6,384.2,291.1,385.9,271.3,360.7z M165.3,187.5c7.3-0.7,24.7-2,41.4,0.7c21.2,3.3,35.5,17,35.5,43.6 c0,24.4-18.7,39.9-36.9,45.5h-40V187.5z"/>
    <path class="st4" d="M344.3,154.3v16.2h23c0,25.8-10,33.4-26.2,33.4c-16.2,0-23.9-16.8-23.9-16.8s0-39.8,0-50.1 c0-10.3,7.1-24.9,24.9-24.9c17.8,0,25.2,17.2,25.2,17.2l15-6.4C369.7,94.1,342,97,342,97c-43.3,0-42.7,42.7-42.7,42.7v43.2 c0,0,1,37.4,42.4,37.4c41.4,0,43.6-39.2,43.6-39.2v-26.8H344.3z"/>
  </g>
  <path fill-rule="evenodd" clip-rule="evenodd" d="M 149.932 22.492 C 77.482 22.492 19 80.974 19 153.424 C 19 211.034 56.534 259.915 108.907 277.372 C 115.889 278.245 117.635 274.753 117.635 271.263 L 117.635 248.568 C 80.974 256.424 73.119 231.11 73.119 231.11 C 67.008 216.271 58.28 211.906 58.28 211.906 C 46.059 204.051 59.153 204.051 59.153 204.051 C 72.245 204.924 79.229 217.144 79.229 217.144 C 90.576 237.22 109.78 231.11 117.635 227.618 C 118.509 218.889 121.999 213.652 126.364 210.16 C 97.559 206.669 67.008 195.322 67.008 145.568 C 67.008 131.601 72.245 119.381 80.102 110.653 C 78.356 107.162 73.991 94.068 80.974 75.737 C 80.974 75.737 92.321 72.245 116.762 88.831 C 127.238 86.212 138.585 84.466 149.932 84.466 C 161.278 84.466 172.626 86.212 183.101 88.831 C 208.414 72.245 218.889 75.737 218.889 75.737 C 225.873 94.068 221.508 107.162 219.763 110.653 C 228.491 119.381 232.855 131.601 232.855 145.568 C 232.855 196.195 202.304 206.669 173.499 210.16 C 177.865 214.526 182.228 222.381 182.228 234.602 L 182.228 270.39 C 182.228 273.882 184.846 278.245 190.957 276.5 C 243.33 259.042 279.99 210.16 279.99 152.551 C 280.863 80.974 222.381 22.492 149.932 22.492 Z" style="fill: rgb(255, 255, 255);"/>
</svg>