<?xml version="1.0" encoding="utf-8"?>
<svg version="1.1" id="Layer_1" x="0px" y="0px" viewBox="0 0 299 300" style="enable-background:new 0 0 500 500;" xmlns="http://www.w3.org/2000/svg">
  <style type="text/css">
	.st0{display:none;}
	.st1{display:inline;fill:#EEF4D6;}
	.st2{display:none;fill:#4B4A4C;}
	.st3{fill:#76C9B8;}
</style>
  <rect width="300" height="300" style="fill: rgb(26, 33, 84);"/>
  <g class="st0">
    <path class="st1" d="M497.5,250c0,136.7-110.8,247.5-247.5,247.5C113.3,497.5,2.5,386.7,2.5,250C2.5,113.3,113.3,2.5,250,2.5 C386.7,2.5,497.5,113.3,497.5,250z"/>
  </g>
  <path class="st2" d="M379.5,359.7L275.6,101.9l-71.9,0.8l11.9,30.2c0,0-79.5,209.9-85.5,224.8c-6,14.9-24,14-24,14v13.8h83.3v-15.5 c-32.1,0-29.4-17.6-29.4-17.6l20.2-52.7h103.8c7.7,19,14.1,34.9,17.2,42.9c12.1,30.6-31.9,28.1-31.9,28.1v14.7h131v-15.5 C382.1,369.9,379.5,359.7,379.5,359.7z M190.7,272.1l39.9-104.1c0,0,22.3,54.9,42.2,104.1H190.7z"/>
  <g class="st0" transform="matrix(1, 0, 0, 1, 75.605583, -91.374258)">
    <path class="st1" d="M497.5,250c0,136.7-110.8,247.5-247.5,247.5C113.3,497.5,2.5,386.7,2.5,250C2.5,113.3,113.3,2.5,250,2.5 C386.7,2.5,497.5,113.3,497.5,250z"/>
  </g>
  <path class="st2" d="M379.5,359.7L275.6,101.9l-71.9,0.8l11.9,30.2c0,0-79.5,209.9-85.5,224.8c-6,14.9-24,14-24,14v13.8h83.3v-15.5 c-32.1,0-29.4-17.6-29.4-17.6l20.2-52.7h103.8c7.7,19,14.1,34.9,17.2,42.9c12.1,30.6-31.9,28.1-31.9,28.1v14.7h131v-15.5 C382.1,369.9,379.5,359.7,379.5,359.7z M190.7,272.1l39.9-104.1c0,0,22.3,54.9,42.2,104.1H190.7z" transform="matrix(1, 0, 0, 1, 75.605583, -91.374258)"/>
  <g class="st0" transform="matrix(1, 0, 0, 1, 75.605583, -91.374258)">
    <path class="st3" d="M497.5,250c0,136.7-110.8,247.5-247.5,247.5C113.3,497.5,2.5,386.7,2.5,250C2.5,113.3,113.3,2.5,250,2.5 C386.7,2.5,497.5,113.3,497.5,250z"/>
  </g>
  <g transform="matrix(0.763403, 0, 0, 0.781318, -38.407711, -45.706032)" style="">
    <path class="st0" d="M497.5,250c0,136.7-110.8,247.5-247.5,247.5S2.5,386.7,2.5,250C2.5,113.3,113.3,2.5,250,2.5 S497.5,113.3,497.5,250z" style="fill: rgb(255, 255, 255);"/>
  </g>
  <g class="st0" transform="matrix(1, 0, 0, 1, 75.605583, -91.374258)">
    <path class="st4" d="M271.3,360.7c-14.4-18.3-24-35.5-31.2-45.2l0,0l-17.4-25.8c5.6-1.6,47.8-15.4,49.6-60.6 c2-50.5-45.8-64.8-107-58.2h-13.5h-6.4h-7h-29.2v10.5c0,0,29.2-0.1,29.2,23.2v157.9c0,0-1.9,20.5-22.2,20.5h-6.9v11.2h89.3v-11.2 h-11.1c-20.3,0-22.2-20.5-22.2-20.5v-69.2h25.9c7.2,11.7,48.1,78.2,58.7,86.6c12.2,9.8,18,11.2,18,11.2l0,0c6.6,3.3,22.2,9,42.7,3 v-9.9C310.6,384.2,291.1,385.9,271.3,360.7z M165.3,187.5c7.3-0.7,24.7-2,41.4,0.7c21.2,3.3,35.5,17,35.5,43.6 c0,24.4-18.7,39.9-36.9,45.5h-40V187.5z"/>
    <path class="st4" d="M344.3,154.3v16.2h23c0,25.8-10,33.4-26.2,33.4c-16.2,0-23.9-16.8-23.9-16.8s0-39.8,0-50.1 c0-10.3,7.1-24.9,24.9-24.9c17.8,0,25.2,17.2,25.2,17.2l15-6.4C369.7,94.1,342,97,342,97c-43.3,0-42.7,42.7-42.7,42.7v43.2 c0,0,1,37.4,42.4,37.4c41.4,0,43.6-39.2,43.6-39.2v-26.8H344.3z"/>
  </g>
  <g transform="matrix(0.724254, 0, 0, 0.778697, -12.715008, -31.199911)" style=""/>
  <g transform="matrix(0.724254, 0, 0, 0.778697, -12.715008, -31.199911)" style=""/>
  <g transform="matrix(0.724254, 0, 0, 0.778697, -12.715008, -31.199911)" style=""/>
  <g transform="matrix(0.724254, 0, 0, 0.778697, -12.715008, -31.199911)" style=""/>
  <g transform="matrix(0.724254, 0, 0, 0.778697, -12.715008, -31.199911)" style=""/>
  <g transform="matrix(0.724254, 0, 0, 0.778697, -12.715008, -31.199911)" style=""/>
  <g transform="matrix(0.724254, 0, 0, 0.778697, -12.715008, -31.199911)" style=""/>
  <g transform="matrix(0.724254, 0, 0, 0.778697, -12.715008, -31.199911)" style=""/>
  <g transform="matrix(0.724254, 0, 0, 0.778697, -12.715008, -31.199911)" style=""/>
  <g transform="matrix(0.724254, 0, 0, 0.778697, -12.715008, -31.199911)" style=""/>
  <g transform="matrix(0.724254, 0, 0, 0.778697, -12.715008, -31.199911)" style=""/>
  <g transform="matrix(0.724254, 0, 0, 0.778697, -12.715008, -31.199911)" style=""/>
  <g transform="matrix(0.724254, 0, 0, 0.778697, -12.715008, -31.199911)" style=""/>
  <g transform="matrix(0.724254, 0, 0, 0.778697, -12.715008, -31.199911)" style=""/>
  <g transform="matrix(0.724254, 0, 0, 0.778697, -12.715008, -31.199911)" style=""/>
  <circle style="fill: rgb(255, 255, 255);" cx="212.615" cy="47.097" r="24.372" transform="matrix(1.282793, 0, 0, 1.231376, -53.233757, -16.536238)"/>
  <circle style="fill: rgb(255, 255, 255);" cx="212.615" cy="47.097" r="24.372" transform="matrix(1.282793, 0, 0, 1.231376, -201.103653, -11.523771)"/>
  <circle style="fill: rgb(255, 255, 255);" cx="212.615" cy="47.097" r="24.372" transform="matrix(4.856269, 0, 0, 3.853638, -883.18396, -58.197395)"/>
  <rect x="100.46" y="206.245" width="105.89" height="93.985" style="fill: rgb(255, 255, 255);"/>
  <circle style="fill: rgb(255, 255, 255);" cx="87.928" cy="208.125" r="64.463"/>
  <g style="" transform="matrix(0.772101, 0, 0.002571, 0.83014, 322.509766, -32.69949)">
    <path d="M -85.465 113.735 C -105.073 80.139 -62.381 77.841 -95.974 58.235 C -129.572 38.628 -188.888 63.182 -228.674 63.182 C -268.455 63.182 -325.772 44.497 -359.363 64.101 C -392.959 83.706 -356.38 76.787 -375.988 110.383 C -395.593 143.978 -390.025 163.906 -390.025 203.682 C -390.025 251.462 -417.504 287.724 -389.617 325.885 C -361.733 364.049 -339.211 386.267 -295.054 400.922 C -289.914 401.876 -286.109 401.205 -283.635 398.926 C -281.16 396.644 -279.924 393.786 -279.924 390.364 C -279.924 389.793 -279.973 384.656 -280.068 374.947 C -280.166 365.238 -280.212 356.768 -280.212 349.541 L -286.779 350.677 C -290.966 351.444 -296.248 351.769 -302.625 351.677 C -308.999 351.588 -315.616 350.92 -322.467 349.678 C -329.321 348.447 -335.696 345.592 -341.597 341.119 C -347.495 336.646 -351.682 330.791 -354.157 323.563 L -357.012 316.993 C -358.915 312.619 -361.911 307.76 -366.004 302.434 C -370.097 297.103 -374.236 293.489 -378.423 291.586 L -380.422 290.155 C -381.754 289.204 -382.99 288.057 -384.133 286.726 C -385.275 285.395 -386.13 284.063 -386.701 282.729 C -387.273 281.394 -386.799 280.299 -385.274 279.44 C -383.749 278.581 -380.993 278.164 -376.994 278.164 L -371.286 279.017 C -367.479 279.78 -362.77 282.059 -357.153 285.868 C -351.539 289.674 -346.924 294.622 -343.307 300.71 C -338.927 308.516 -333.65 314.464 -327.461 318.557 C -321.277 322.65 -315.042 324.693 -308.762 324.693 C -302.482 324.693 -297.058 324.217 -292.488 323.27 C -287.923 322.318 -283.64 320.887 -279.641 318.985 C -277.928 306.227 -273.264 296.426 -265.653 289.575 C -276.501 288.435 -286.254 286.718 -294.917 284.435 C -303.575 282.149 -312.522 278.439 -321.752 273.295 C -330.987 268.158 -338.648 261.779 -344.737 254.169 C -350.827 246.555 -355.825 236.559 -359.724 224.19 C -363.625 211.816 -365.576 197.542 -365.576 181.364 C -365.576 158.329 -358.056 138.727 -343.019 122.547 C -350.063 105.229 -349.398 85.815 -341.022 64.307 C -335.502 62.592 -327.316 63.879 -316.468 68.16 C -305.618 72.443 -297.674 76.112 -292.628 79.154 C -287.582 82.195 -283.539 84.772 -280.493 86.862 C -262.788 81.915 -244.517 79.441 -225.675 79.441 C -206.833 79.441 -188.558 81.915 -170.852 86.862 L -160.003 80.013 C -152.584 75.443 -143.823 71.255 -133.741 67.448 C -123.653 63.643 -115.939 62.595 -110.607 64.31 C -102.045 85.819 -101.282 105.232 -108.328 122.55 C -93.292 138.73 -85.769 158.337 -85.769 181.367 C -85.769 197.545 -87.727 211.864 -91.622 224.333 C -95.522 236.804 -100.563 246.79 -106.747 254.312 C -112.938 261.833 -120.648 268.162 -129.878 273.298 C -139.11 278.438 -148.06 282.148 -156.718 284.434 C -165.38 286.72 -175.133 288.438 -185.981 289.58 C -176.087 298.142 -171.139 311.657 -171.139 330.119 L -171.139 390.356 C -171.139 393.778 -169.949 396.635 -167.567 398.918 C -165.188 401.197 -161.431 401.868 -156.291 400.913 C -112.128 386.26 -164.362 349.796 -136.479 311.632 C -108.599 273.471 -64.079 247.264 -64.079 199.484 C -64.089 159.713 -65.869 147.33 -85.465 113.735 Z" style="fill: rgb(26, 33, 84);"/>
  </g>
  <rect x="201.78" y="278.398" width="21.303" height="21.93" style="fill: rgb(26, 33, 84);"/>
</svg>