<?xml version="1.0" encoding="utf-8"?>
<svg version="1.1" id="Layer_1" x="0px" y="0px" viewBox="0 0 299 300" style="enable-background:new 0 0 500 500;" xmlns="http://www.w3.org/2000/svg">
  <style type="text/css">
	.st0{display:none;}
	.st1{display:inline;fill:#EEF4D6;}
	.st2{display:none;fill:#4B4A4C;}
	.st3{fill:#76C9B8;}
</style>
  <rect width="300" height="300" style="fill: rgb(26, 33, 84);"/>
  <g class="st0">
    <path class="st1" d="M497.5,250c0,136.7-110.8,247.5-247.5,247.5C113.3,497.5,2.5,386.7,2.5,250C2.5,113.3,113.3,2.5,250,2.5 C386.7,2.5,497.5,113.3,497.5,250z"/>
  </g>
  <path class="st2" d="M379.5,359.7L275.6,101.9l-71.9,0.8l11.9,30.2c0,0-79.5,209.9-85.5,224.8c-6,14.9-24,14-24,14v13.8h83.3v-15.5 c-32.1,0-29.4-17.6-29.4-17.6l20.2-52.7h103.8c7.7,19,14.1,34.9,17.2,42.9c12.1,30.6-31.9,28.1-31.9,28.1v14.7h131v-15.5 C382.1,369.9,379.5,359.7,379.5,359.7z M190.7,272.1l39.9-104.1c0,0,22.3,54.9,42.2,104.1H190.7z"/>
  <g class="st0" transform="matrix(1, 0, 0, 1, 75.605583, -91.374258)">
    <path class="st1" d="M497.5,250c0,136.7-110.8,247.5-247.5,247.5C113.3,497.5,2.5,386.7,2.5,250C2.5,113.3,113.3,2.5,250,2.5 C386.7,2.5,497.5,113.3,497.5,250z"/>
  </g>
  <path class="st2" d="M379.5,359.7L275.6,101.9l-71.9,0.8l11.9,30.2c0,0-79.5,209.9-85.5,224.8c-6,14.9-24,14-24,14v13.8h83.3v-15.5 c-32.1,0-29.4-17.6-29.4-17.6l20.2-52.7h103.8c7.7,19,14.1,34.9,17.2,42.9c12.1,30.6-31.9,28.1-31.9,28.1v14.7h131v-15.5 C382.1,369.9,379.5,359.7,379.5,359.7z M190.7,272.1l39.9-104.1c0,0,22.3,54.9,42.2,104.1H190.7z" transform="matrix(1, 0, 0, 1, 75.605583, -91.374258)"/>
  <g class="st0" transform="matrix(1, 0, 0, 1, 75.605583, -91.374258)">
    <path class="st3" d="M497.5,250c0,136.7-110.8,247.5-247.5,247.5C113.3,497.5,2.5,386.7,2.5,250C2.5,113.3,113.3,2.5,250,2.5 C386.7,2.5,497.5,113.3,497.5,250z"/>
  </g>
  <g transform="matrix(0.6917, 0, 0, 0.6917, -138.615891, 10.013062)">
    <path class="st6" d="M 548.533 80.481 L 548.533 51.881 L 568.333 43.281 L 520.333 43.281 L 520.333 43.281 C 520.333 43.281 451.033 43.281 426.533 43.281 C 426.433 43.281 426.333 43.281 426.233 43.281 L 383.533 43.281 L 264.733 107.081 L 340.333 106.081 C 339.633 109.681 339.233 113.281 339.233 116.981 C 339.233 156.481 365.333 187.881 410.033 187.881 C 413.133 187.881 416.133 187.681 419.133 187.481 C 416.233 193.081 414.133 199.281 414.133 205.781 C 414.133 216.781 420.133 222.981 427.633 230.281 C 422.033 230.281 416.533 230.381 410.633 230.381 C 356.133 230.381 318.033 267.881 318.033 303.881 C 318.033 339.281 364.033 361.481 418.533 361.481 C 480.633 361.481 518.833 326.181 518.833 290.781 C 518.833 262.381 512.733 248.081 482.433 225.381 C 473.733 218.881 454.833 205.481 454.833 196.481 C 454.833 185.981 457.833 180.781 473.633 168.381 C 489.833 155.681 501.333 138.981 501.333 118.281 C 501.333 102.881 497.033 88.481 488.833 77.681 L 537.633 56.581 L 537.633 80.581 C 534.433 82.481 532.233 85.981 532.233 89.981 L 532.233 199.681 L 553.933 199.681 L 553.933 89.881 C 553.933 85.881 551.733 82.381 548.533 80.481 Z M 488.533 284.681 C 489.333 287.981 489.733 291.381 489.733 294.781 C 489.733 323.481 471.233 345.781 418.333 345.781 C 380.633 345.781 353.433 321.981 353.433 293.281 C 353.433 265.181 385.333 240.981 423.033 241.381 C 431.833 241.481 440.033 242.881 447.433 245.281 C 467.933 259.581 484.433 268.481 488.533 284.681 Z M 463.633 119.681 C 468.033 152.881 453.433 174.281 428.133 173.481 C 402.833 172.681 378.833 149.481 374.433 116.281 C 373.933 112.581 373.733 108.981 373.733 105.481 L 425.833 104.781 L 455.433 91.981 C 459.533 100.381 462.333 109.781 463.633 119.681 Z" style="fill: rgb(255, 255, 255);"/>
  </g>
  <g class="st0" transform="matrix(1, 0, 0, 1, 75.605583, -91.374258)">
    <path class="st4" d="M271.3,360.7c-14.4-18.3-24-35.5-31.2-45.2l0,0l-17.4-25.8c5.6-1.6,47.8-15.4,49.6-60.6 c2-50.5-45.8-64.8-107-58.2h-13.5h-6.4h-7h-29.2v10.5c0,0,29.2-0.1,29.2,23.2v157.9c0,0-1.9,20.5-22.2,20.5h-6.9v11.2h89.3v-11.2 h-11.1c-20.3,0-22.2-20.5-22.2-20.5v-69.2h25.9c7.2,11.7,48.1,78.2,58.7,86.6c12.2,9.8,18,11.2,18,11.2l0,0c6.6,3.3,22.2,9,42.7,3 v-9.9C310.6,384.2,291.1,385.9,271.3,360.7z M165.3,187.5c7.3-0.7,24.7-2,41.4,0.7c21.2,3.3,35.5,17,35.5,43.6 c0,24.4-18.7,39.9-36.9,45.5h-40V187.5z"/>
    <path class="st4" d="M344.3,154.3v16.2h23c0,25.8-10,33.4-26.2,33.4c-16.2,0-23.9-16.8-23.9-16.8s0-39.8,0-50.1 c0-10.3,7.1-24.9,24.9-24.9c17.8,0,25.2,17.2,25.2,17.2l15-6.4C369.7,94.1,342,97,342,97c-43.3,0-42.7,42.7-42.7,42.7v43.2 c0,0,1,37.4,42.4,37.4c41.4,0,43.6-39.2,43.6-39.2v-26.8H344.3z"/>
  </g>
</svg>