<?xml version="1.0" encoding="utf-8"?>
<svg version="1.1" id="Layer_1" x="0px" y="0px" viewBox="0 0 300 300" style="enable-background:new 0 0 256 256;" xmlns="http://www.w3.org/2000/svg">
  <style type="text/css">
	.st0{fill:#A6CE39;}
	.st1{fill:#FFFFFF;}
</style>
  <rect width="300" height="300" style="fill: rgb(26, 33, 84);"/>
  <path class="st0" d="M 290 150 C 290 227.329 227.329 290 150 290 C 72.671 290 10 227.329 10 150 C 10 72.671 72.671 10 150 10 C 227.329 10 290 72.671 290 150 Z" style="fill: rgb(255, 255, 255);"/>
  <g transform="matrix(1.09375, 0, 0, 1.09375, 10, 10)">
    <path class="st1" d="M86.3,186.2H70.9V79.1h15.4v48.4V186.2z" style="fill: rgb(26, 33, 84);"/>
    <path class="st1" d="M108.9,79.1h41.6c39.6,0,57,28.3,57,53.6c0,27.5-21.5,53.6-56.8,53.6h-41.8V79.1z M124.3,172.4h24.5 c34.9,0,42.9-26.5,42.9-39.7c0-21.5-13.7-39.7-43.7-39.7h-23.7V172.4z" style="fill: rgb(26, 33, 84);"/>
    <path class="st1" d="M88.7,56.8c0,5.5-4.5,10.1-10.1,10.1c-5.6,0-10.1-4.6-10.1-10.1c0-5.6,4.5-10.1,10.1-10.1 C84.2,46.7,88.7,51.3,88.7,56.8z" style="fill: rgb(26, 33, 84);"/>
  </g>
</svg>